<?xml version="1.0" encoding="UTF-8"?>
<svg width="700pt" height="700pt" version="1.1" viewBox="0 0 700 700" xmlns="http://www.w3.org/2000/svg">
 <path d="m350 46.668c-61.883 0-121.23 24.582-164.99 68.34-43.758 43.758-68.34 103.11-68.34 164.99s24.582 121.23 68.34 164.99c43.758 43.758 103.11 68.34 164.99 68.34s121.23-24.582 164.99-68.34c43.758-43.758 68.34-103.11 68.34-164.99-0.097656-61.855-24.711-121.14-68.449-164.88-43.738-43.738-103.03-68.352-164.88-68.449zm93.332 256.67-186.66-0.003907c-8.3359 0-16.039-4.4453-20.207-11.664-4.168-7.2188-4.168-16.117 0-23.336 4.168-7.2188 11.871-11.664 20.207-11.664h186.67-0.003907c8.3359 0 16.039 4.4453 20.207 11.664 4.168 7.2188 4.168 16.117 0 23.336-4.168 7.2188-11.871 11.664-20.207 11.664z"/>
</svg>
